Coordinates
version=1
nRows=5
nColumns=63
inDegrees=yes

Units are S.I. units (second, meters, Newtons, ...)
If the header above contains a line with 'inDegrees', this indicates whether rotational values are in degrees (yes) or radians (no).

endheader
time	pelvis_tilt	pelvis_list	pelvis_rotation	pelvis_tx	pelvis_ty	pelvis_tz	hip_flexion_r	hip_adduction_r	hip_rotation_r	knee_angle_r	knee_angle_r_beta	ankle_angle_r	subtalar_angle_r	mtp_angle_r	hip_flexion_l	hip_adduction_l	hip_rotation_l	knee_angle_l	knee_angle_l_beta	ankle_angle_l	subtalar_angle_l	mtp_angle_l	L5_S1_Flex_Ext	L5_S1_Lat_Bending	L5_S1_axial_rotation	L4_L5_Flex_Ext	L4_L5_Lat_Bending	L4_L5_axial_rotation	L3_L4_Flex_Ext	L3_L4_Lat_Bending	L3_L4_axial_rotation	L2_L3_Flex_Ext	L2_L3_Lat_Bending	L2_L3_axial_rotation	L1_L2_Flex_Ext	L1_L2_Lat_Bending	L1_L2_axial_rotation	L1_T12_Flex_Ext	L1_T12_Lat_Bending	L1_T12_axial_rotation	Abs_r3	Abs_r2	Abs_r1	Abs_t1	Abs_t2	neck_flexion	neck_bending	neck_rotation	arm_flex_r	arm_add_r	arm_rot_r	elbow_flex_r	pro_sup_r	wrist_flex_r	wrist_dev_r	arm_flex_l	arm_add_l	arm_rot_l	elbow_flex_l	pro_sup_l	wrist_flex_l	wrist_dev_l
      1.88333333	     -0.74203758	     -3.63712039	     76.54963343	      0.27905791	      0.94050683	      0.54402723	      1.91996532	     -1.47385521	      3.14753295	     10.88396548	      0.18996103	     36.84320481	      8.25137609	      0.00000000	     -2.60974157	      2.36609609	      4.24546547	      3.45838975	      0.06036029	     34.25675489	    -16.24929590	      0.00000000	      0.15728843	     -0.19009187	      1.20342729	      0.29210034	     -0.25282218	      1.27864149	      0.25840916	     -0.46218936	      1.27864149	      0.17976494	     -0.46218936	      1.05299888	      0.14605803	     -0.38763533	      0.97778467	      0.08987461	     -0.29445230	      0.90257047	      1.12349550	     -2.15035720	      6.69310154	      0.00000000	      0.00000000	     25.64273849	     -3.61124078	    -26.75629884	      1.48189472	     -6.76388205	     35.77396943	     45.96498892	     48.43150450	      2.34699038	     12.70230019	     12.00427423	    -10.11063179	     63.87601237	     50.76838851	     46.75825186	     -8.64526252	     -0.56723885
      1.90000000	     -0.60412752	     -3.43018361	     77.16388274	      0.27946855	      0.94040158	      0.54257720	      1.26705134	     -1.13010217	      4.95601838	     10.37682027	      0.18110968	     36.09550981	      4.81428435	      0.00000000	     -2.84854490	      2.19823530	      4.91694875	      3.64950897	      0.06369595	     34.57897177	    -16.39584216	      0.00000000	      0.16440727	     -0.20630044	      1.06151519	      0.30532074	     -0.27437958	      1.12785989	      0.27010470	     -0.50159889	      1.12785989	      0.18790107	     -0.50159889	      0.92882579	      0.15266859	     -0.42068786	      0.86248109	      0.09394231	     -0.31955938	      0.79613639	      1.17434469	     -2.33371183	      5.90382904	      0.00000000	      0.00000000	     24.90183045	     -3.02057515	    -27.26304371	      1.65065533	     -6.89750383	     36.45965037	     46.29058060	     46.19198771	      2.34115476	     10.78784767	     11.90612422	    -10.31658591	     62.42929140	     51.56573150	     46.97746710	     -8.84182205	      1.96433809
      1.91666667	     -0.50132223	     -3.22165012	     77.47999052	      0.28017057	      0.94031532	      0.54143981	      0.79175232	     -1.00710251	      4.72978754	     10.16392548	      0.17739396	     35.79666921	      4.24954255	      0.00000000	     -3.07843968	      2.07440311	      5.05026402	      3.82582597	      0.06677326	     34.98189835	    -16.19755054	      0.00000000	      0.16032207	     -0.22238877	      1.05853302	      0.29773412	     -0.29577707	      1.12469133	      0.26339313	     -0.54071606	      1.12469133	      0.18323210	     -0.54071606	      0.92621639	      0.14887508	     -0.45349519	      0.86005808	      0.09160803	     -0.34448021	      0.79389976	      1.14516453	     -2.51570628	      5.88724309	      0.00000000	      0.00000000	     24.47051683	     -2.59826173	    -27.92034387	      1.36646762	     -6.80479818	     35.43200486	     46.77727013	     46.03192318	      2.67193579	      9.06086957	     12.34690321	    -10.33231349	     62.00201529	     51.92575243	     46.43271272	     -8.56421938	      4.28648316
      1.93333333	     -0.50783717	     -2.98380239	     77.60275829	      0.28134046	      0.94014771	      0.54052114	      0.42164685	     -0.98841631	      4.64369189	     10.21393804	      0.17826685	     35.70367632	      3.71235847	      0.00000000	     -3.27136156	      2.05751801	      5.08741546	      4.09762782	      0.07151710	     35.39940266	    -16.05389233	      0.00000000	      0.14627527	     -0.25081350	      1.09687367	      0.27164780	     -0.33358196	      1.16542827	      0.24031564	     -0.60982795	      1.16542827	      0.16717801	     -0.60982795	      0.95976446	      0.13583122	     -0.51145890	      0.89120986	      0.08358169	     -0.38851012	      0.82265525	      1.04482963	     -2.83725252	      6.10048229	      0.00000000	      0.00000000	     24.24492578	     -2.20152403	    -28.38847123	      1.06626733	     -6.71525633	     34.37737400	     47.52756551	     45.89680246	      3.08461404	      7.18167671	     12.76295105	    -10.47414359	     61.44696555	     52.43157574	     46.01509374	     -8.27902848	      6.79623174
      1.95000000	     -0.60218151	     -2.85374688	     77.53834494	      0.28294447	      0.93981826	      0.54000185	      0.21952623	     -1.01596931	      4.67145608	     10.30190398	      0.17980214	     35.61303780	      3.18523191	      0.00000000	     -3.27365009	      2.10018655	      4.89136973	      4.45284420	      0.07771679	     35.72654016	    -15.92487141	      0.00000000	      0.13837256	     -0.28312879	      1.16623870	      0.25697168	     -0.37656129	      1.23912862	      0.22733228	     -0.68839934	      1.23912862	      0.15814600	     -0.68839934	      1.02045886	      0.12849276	     -0.57735622	      0.94756894	      0.07906608	     -0.43856649	      0.87467902	      0.98838134	     -3.20280948	      6.48626978	      0.00000000	      0.00000000	     24.18488484	     -2.17778671	    -28.65736886	      0.71474587	     -6.58231301	     33.13884634	     48.54474744	     45.91875335	      3.54446754	      5.07892680	     13.12803545	    -10.80220403	     60.59745834	     53.33647958	     45.73662613	     -8.01444636	      9.76240595
